<svg id="Shark_Silhouette" xmlns="http://www.w3.org/2000/svg" width="268.67" height="160.823" viewBox="0 0 268.67 160.823">
  <path id="Shark_Silhouette-2" data-name="Shark Silhouette" d="M309.82,188.171c-35.427,17.622-34.234,30.837-43.789,21.627-31.016-35.5-63.01-50-92.789-52.365-3.138-7.106-8.546-22.221-5.937-37.343-35.427,6.8-35.8,41.539-35.8,41.539h0C48.81,163.362,41.15,215.672,41.15,228.763c0,39.769,128.942,85.69,224.881,16.415,9.555-9.21,7.168,5.385,38.614,25.892-9.955-20.507-13.038-25.489-15.523-39.651C292.7,218.2,296.284,206.994,309.82,188.171Z" transform="translate(-41.15 -120.09)" fill="#00d2ae"/>
</svg>
