<svg xmlns="http://www.w3.org/2000/svg" width="194.67" height="115.823" viewBox="0 0 194.67 115.823">
  <g id="Shark_Silhouette" data-name="Shark Silhouette" transform="translate(0)">
    <path id="Shark_Silhouette-2" data-name="Shark Silhouette" d="M235.82,169.121c-25.669,12.691-24.8,22.209-31.728,15.575-22.473-25.57-45.655-36.01-67.232-37.713-2.274-5.118-6.192-16-4.3-26.894-25.669,4.9-25.941,29.916-25.941,29.916h0C46.7,151.254,41.15,188.927,41.15,198.355c0,28.641,93.427,61.713,162.942,11.822,6.923-6.633,5.194,3.878,27.979,18.647-7.213-14.769-9.447-18.357-11.248-28.557C223.418,190.75,226.012,182.677,235.82,169.121Z" transform="translate(-41.15 -120.09)" fill="#00d2ae"/>
  </g>
</svg>
