<svg xmlns="http://www.w3.org/2000/svg" xmlns:xlink="http://www.w3.org/1999/xlink" width="496.086" height="200.139" viewBox="0 0 496.086 200.139">
  <defs>
    <filter id="Path_149" x="0" y="0" width="496.086" height="200.139" filterUnits="userSpaceOnUse">
      <feOffset dy="4" input="SourceAlpha"/>
      <feGaussianBlur stdDeviation="2.933" result="blur"/>
      <feFlood flood-color="#323a44" flood-opacity="0.6"/>
      <feComposite operator="in" in2="blur"/>
      <feComposite in="SourceGraphic"/>
    </filter>
  </defs>
  <g id="Group_187" data-name="Group 187" transform="translate(-6.453 -160.787)">
    <g transform="matrix(1, 0, 0, 1, 6.45, 160.79)" filter="url(#Path_149)">
      <path id="Path_149-2" data-name="Path 149" d="M19.711,251.093C97.7,200.13,188.392,227.647,201.417,205.829s38.426-51.125,40.7-36.146-5.21,39.077,19.213,48.846,79.782,10.746,93.458,15.956c7.816.652,12.7-7.815,15.3-.977s4.234,12.7,46.241,8.467c14.979-16.282,5.21-16.933,76.851-67.733,5.536,2.28-32.564,56.01-30.61,84.666s28.005,62.848,14,56.987c-44.612-23.446-56.983-61.281-73.268-57.964-17.585,3.582-20.19,8.467-20.19,8.467s4.885,13.025-8.467,4.559c-8.466,2.931-22.794-.326-50.148,3.907-8.792,2.606-3.256,21.493-14,12.049-4.558-3.908-18.887-8.466-26.7-6.513s-29.633,15.3-89.225,10.421c-11.723,1.954-14.654,17.91-6.513,45.915s-35.169,1.628-52.1-49.172c-4.559-3.582-38.1-.325-81.084-10.094-12.374-1.629-12.7-6.839-6.187-9.118C32.085,272.422,4.406,262.816,19.711,251.093Z" transform="translate(-6.45 -160.79)" fill="#fff"/>
    </g>
    <g id="Group_185" data-name="Group 185">
      <path id="Path_150" data-name="Path 150" d="M289.666,279.1a4.117,4.117,0,0,0-.763.848c7.852.226,17.919,3.809,21.6,6.967,10.12,8.893,5.8-7.333,12.61-11.431C316.618,272.4,294.431,274.928,289.666,279.1Z" fill="#828e93"/>
      <path id="Path_151" data-name="Path 151" d="M493.19,174.242c-71.641,50.8-61.872,51.451-76.851,67.733-42.007,4.233-43.636-1.628-46.241-8.467s-7.489,1.629-15.3.977c-13.676-5.21-69.035-6.187-93.458-15.956s-16.933-33.866-19.213-48.846-27.679,14.328-40.7,36.146S97.7,200.13,19.711,251.093c-3.8,2.91-4.948,5.69-4.276,8.163,4.589-1.3,12.217-2.725,16.976.3,7.164,4.559,11.072,2.28,33.866,1.3s14.329,14.654,36.472,2.931A19.589,19.589,0,0,1,118.38,266.4s7.489,2.931,10.42.325-.977,10.747-.977,17.259c0,.643-.917,1.211-2.549,1.715,5.651.372,9.378.836,10.69,1.867,16.933,50.8,60.243,77.177,52.1,49.172-7.518-25.861-5.587-41.438,3.983-45.211-.023-.018-.053-.035-.075-.053-8.792-7.49-41.03-9.769-41.03-9.769,4.884-11.723,20.515.326,26.051-.977s25.4-10.1,41.03-8.141,62.2.326,67.733-5.536C300.737,245.557,318,250.767,318,250.767s12.7,5.21,44.938,0c16.121-2.6,22.552,4.4,24.953,12.051,3-1.538,7.806-3.334,15.427-4.887,16.285-3.317,28.656,34.518,73.268,57.964,14,5.861-12.048-28.331-14-56.987S498.726,176.522,493.19,174.242Z" fill="#828e93"/>
    </g>
    <ellipse id="Ellipse_238" data-name="Ellipse 238" cx="3.094" cy="3.419" rx="3.094" ry="3.419" transform="translate(38.924 250.116)"/>
    <g id="Group_186" data-name="Group 186">
      <path id="Path_152" data-name="Path 152" d="M120.659,263.793a51.312,51.312,0,0,1-1.581-6.976,61.921,61.921,0,0,1-.709-7.129,60.091,60.091,0,0,1,.147-7.164,38.785,38.785,0,0,1,1.166-7.062c-.156,2.379-.184,4.744-.214,7.1,0,2.36.013,4.718.121,7.073s.228,4.711.432,7.064Z" fill="#31383a"/>
      <path id="Path_153" data-name="Path 153" d="M125.6,263.793a51.312,51.312,0,0,1-1.581-6.976,61.92,61.92,0,0,1-.708-7.129,59.882,59.882,0,0,1,.146-7.164,38.784,38.784,0,0,1,1.166-7.062c-.156,2.379-.184,4.744-.214,7.1,0,2.36.014,4.718.121,7.073s.228,4.711.432,7.064Z" fill="#31383a"/>
      <path id="Path_154" data-name="Path 154" d="M130.536,263.793a51.162,51.162,0,0,1-1.581-6.976,61.92,61.92,0,0,1-.709-7.129,59.674,59.674,0,0,1,.147-7.164,38.612,38.612,0,0,1,1.166-7.062c-.157,2.379-.185,4.744-.215,7.1,0,2.36.014,4.718.121,7.073s.229,4.711.432,7.064Z" fill="#31383a"/>
      <path id="Path_155" data-name="Path 155" d="M135.474,263.793a51.311,51.311,0,0,1-1.581-6.976,61.92,61.92,0,0,1-.709-7.129,59.884,59.884,0,0,1,.147-7.164,38.615,38.615,0,0,1,1.166-7.062c-.156,2.379-.185,4.744-.214,7.1,0,2.36.013,4.718.121,7.073s.228,4.711.431,7.064Z" fill="#31383a"/>
    </g>
  </g>
</svg>
