<svg xmlns="http://www.w3.org/2000/svg" width="228.356" height="33.48" viewBox="0 0 228.356 33.48">
  <g id="Group_48" data-name="Group 48" transform="translate(-30.624 -228.698)">
    <path id="Body" d="M31.575,241.019s-2.966-1.384,1.582-2.57c2.966-2.768,24.916-6.328,28.871-4.746,0,0,24.125-.989,31.243.593s16.611-2.175,16.611-2.175,1.977-3.362,12.063-.791c-3.164,2.175-2.571,3.164-2.571,3.164s26.7-1.582,31.244-.4,14.04,1.187,16.808-1.78,14.04-5.339,17.6-1.977c-1.582,1.977-3.955,4.548-3.955,4.548l6.525,6.13s17.8,3.758,23.334,2.768,43.306-12.458,45.482-8.7l-2.571.594,5.141.4-6.525,4.351,5.537,1.582s-12.063,2.571-13.447,4.153-15.029,2.966-16.215,5.339a7.085,7.085,0,0,1,2.373,2.768l-7.514-.4,3.559,4.35s-17.006-4.548-25.311-8.305c-10.678-.593-33.815.4-33.815.4s-6.13,3.559-9.294,3.164a12.8,12.8,0,0,1,1.582,2.57s-8.5,1.582-11.865-2.57c-6.328,0-15.424,5.537-28.08,5.141a184.648,184.648,0,0,1-23.729-2.373l2.768,5.932-6.525-7.316s-41.922-2.373-45.086-6.328C42.055,247.94,34.145,246.358,31.575,241.019Z" transform="translate(0)" fill="#101511"/>
    <g id="Eye" transform="translate(44.823 239.042)">
      <circle id="Ellipse_118" data-name="Ellipse 118" cx="2.571" cy="2.571" r="2.571" transform="translate(0 0.198)" fill="#fff"/>
      <circle id="Ellipse_119" data-name="Ellipse 119" cx="2.571" cy="2.571" r="2.571" transform="translate(0.395 0)" fill="#2a3b28"/>
    </g>
  </g>
</svg>
