<svg xmlns="http://www.w3.org/2000/svg" xmlns:xlink="http://www.w3.org/1999/xlink" width="350.899" height="119.959" viewBox="0 0 350.899 119.959">
  <defs>
    <filter id="Path_126" x="0" y="0" width="350.899" height="119.959" filterUnits="userSpaceOnUse">
      <feOffset dx="4" dy="7" input="SourceAlpha"/>
      <feGaussianBlur stdDeviation="2.933" result="blur"/>
      <feFlood flood-color="#273825" flood-opacity="0.6"/>
      <feComposite operator="in" in2="blur"/>
      <feComposite in="SourceGraphic"/>
    </filter>
  </defs>
  <g id="Group_127" data-name="Group 127" transform="translate(-6.986 -178.828)">
    <path id="Path_124" data-name="Path 124" d="M11.748,217.916c-.333-5.85,11.632-14.989,28.25-17.182,29.246-.731,81.091,2.559,88.735-6.215A140.683,140.683,0,0,0,139.7,180.627s20.273,18.645,24.261,19.01,44.534,13.526,49.187,7.677,5.65-6.946,5.65-6.946,9.971,10.236,18.612,10.968a122.111,122.111,0,0,0,15.288.366s62.48-35.461,92.391-25.591l-5.982,5.85-4.653-2.194s-71.785,22.666-44.533,62.514c-11.964,1.827-32.237-22.3-32.237-22.3l-14.623,2.559,2.659,2.559s-8.974.365-9.305,3.29-4.653-3.29-4.653-3.29l-18.279,5.484s3.323,2.193,18.943,0c-6.647,4.752-11.964,0-19.276,13.16-7.312-4.021-6.315-9.5-13.626-5.849s-54.5,19.01-76.439,11.333c6.647,10.6,18.943,23.763,13.958,23.763S111.119,274.215,95.5,257.4c-16.617,2.193-68.795,0-74.112-3.656S8.425,242.775,26.7,230.711c-15.953-3.656-16.617-9.87-16.617-9.87Z" transform="translate(0 0)" fill="#32423b"/>
    <path id="Path_125" data-name="Path 125" d="M252.7,211.7a122.111,122.111,0,0,1-15.288-.366c-8.641-.731-18.612-10.968-18.612-10.968s-1,1.1-5.65,6.946-45.2-7.311-49.187-7.677-24.261-19.01-24.261-19.01a140.683,140.683,0,0,1-10.967,13.892C121.089,203.293,69.244,200,40,200.734c-16.618,2.193-28.582,11.333-28.25,17.182l-1.661,2.925s.546,5.085,12.46,8.762a30.806,30.806,0,0,1,4.655-.354c11.839,0,21.436,6.629,21.436,14.806,0,5.367-4.134,10.067-10.322,12.663,18.271,1.637,45.909,2.168,57.183.681,15.62,16.816,36.557,25.59,41.543,25.59s-7.312-13.161-13.958-23.763c21.934,7.677,69.127-7.677,76.439-11.333s6.314,1.828,13.626,5.85c7.312-13.162,12.629-8.409,19.276-13.162-15.62,2.194-18.943,0-18.943,0l18.279-5.483s4.32,6.215,4.653,3.29,9.305-3.29,9.305-3.29l-2.659-2.559,14.623-2.56s20.273,24.128,32.237,22.3c-27.252-39.848,44.533-62.514,44.533-62.514l4.653,2.194,5.982-5.85C315.177,176.241,252.7,211.7,252.7,211.7Z" transform="translate(0 0)" fill="#8a9e94"/>
    <g transform="matrix(1, 0, 0, 1, 6.99, 178.83)" filter="url(#Path_126)">
      <path id="Path_126-2" data-name="Path 126" d="M253.459,211.7a122.111,122.111,0,0,1-15.288-.366c-8.641-.731-18.612-10.968-18.612-10.968s-1,1.1-5.65,6.946-45.2-7.311-49.187-7.677-24.261-19.01-24.261-19.01A140.683,140.683,0,0,1,129.5,194.519c-7.644,8.774-59.489,5.484-88.735,6.215-15.88,2.1-27.5,10.533-28.213,16.383,9.845,4.324,22.394,10.847,25.886,17.25,2.516,4.613-17.943,21.309-22.463,9.885-.34,4.381,3.264,7.487,6.179,9.492,5.318,3.656,57.5,5.849,74.112,3.656,15.62,16.816,36.557,25.59,41.543,25.59s-7.312-13.161-13.958-23.763c21.934,7.677,69.127-7.677,76.439-11.333s6.314,1.828,13.626,5.85c7.312-13.162,12.629-8.409,19.276-13.162-15.62,2.194-18.943,0-18.943,0l18.279-5.483s4.32,6.215,4.653,3.29,9.305-3.29,9.305-3.29l-2.659-2.559,14.623-2.56s20.273,24.128,32.237,22.3c-27.252-39.848,44.533-62.514,44.533-62.514l4.653,2.194,5.982-5.85C315.94,176.241,253.459,211.7,253.459,211.7Z" transform="translate(-7.75 -178.83)" fill="#53685d"/>
    </g>
    <g id="Gills" transform="translate(63.374 225.311)">
      <path id="Path_127" data-name="Path 127" d="M89.306,238.09s5.225,18.714-1.981,21.057" transform="translate(-87.325 -237.866)" fill="none" stroke="#141613" stroke-miterlimit="10" stroke-width="3.613"/>
      <path id="Path_128" data-name="Path 128" d="M96.042,237.766s5.226,18.714-1.981,21.057" transform="translate(-89.414 -237.766)" fill="none" stroke="#141613" stroke-miterlimit="10" stroke-width="3.613"/>
      <path id="Path_129" data-name="Path 129" d="M104.315,239.3s5.225,18.714-1.982,21.057" transform="translate(-91.979 -238.241)" fill="none" stroke="#141613" stroke-miterlimit="10" stroke-width="3.613"/>
      <path id="Path_130" data-name="Path 130" d="M111.144,240.9s5.225,18.714-1.982,21.057" transform="translate(-94.097 -238.737)" fill="none" stroke="#141613" stroke-miterlimit="10" stroke-width="3.613"/>
      <path id="Path_131" data-name="Path 131" d="M116.941,241.1s5.225,18.714-1.982,21.057" transform="translate(-95.894 -238.8)" fill="none" stroke="#141613" stroke-miterlimit="10" stroke-width="3.613"/>
    </g>
    <ellipse id="Ellipse_188" data-name="Ellipse 188" cx="2.991" cy="2.825" rx="2.991" ry="2.825" transform="translate(26.371 210.045)" fill="#141613"/>
  </g>
</svg>
