<svg id="Polar" xmlns="http://www.w3.org/2000/svg" width="103.78" height="103.78" viewBox="0 0 103.78 103.78">
  <path id="Snowflake" d="M109.57,55.94h-4.687l-1.148,1.989H98.372l-1.8-.725,4.7-4.6a2.065,2.065,0,0,0-2.89-2.95l-5.989,5.856-8.216-3.3a2.632,2.632,0,0,0-1-5.048l2.941-6.895,8.323-.088a2.064,2.064,0,0,0-.043-4.127l-6.513.069.807-1.892,3.688-3.688,2.216.594,3.31-3.31L96.683,23.3l-4.52-1.21L88.856,25.4l.594,2.22-3.793,3.791-1.787.764.069-6.573a2.066,2.066,0,0,0-4.129-.043l-.088,8.383-7.954,3.392a2.632,2.632,0,0,0-4.335-2.761l-.088.1L64.5,27.6l5.824-5.946a2.066,2.066,0,1,0-2.952-2.89l-4.556,4.653-.768-1.907V16.3l1.989-1.148V10.462L59.986,8.13,55.94,10.462v4.687L57.928,16.3V21.66l-.725,1.8-4.606-4.7a2.065,2.065,0,0,0-2.95,2.89l5.863,5.989-3.149,7.832a2.634,2.634,0,0,0-4.934,1.287c0,.073,0,.146,0,.215l-7.18-3.061-.088-8.323a2.064,2.064,0,0,0-4.127.043L36.1,32.15l-1.892-.807-3.668-3.681.594-2.216-3.31-3.31-4.52,1.212-1.21,4.52L25.4,31.176l2.22-.594,3.791,3.793.764,1.787L25.6,36.093a2.066,2.066,0,0,0-.043,4.129l8.383.088,3.284,7.706a2.634,2.634,0,0,0-2.377,4.445l.118.107L27.6,55.53l-5.946-5.824a2.066,2.066,0,1,0-2.89,2.952l4.653,4.556-1.907.768H16.3l-1.148-1.989H10.462L8.13,60.046l2.332,4.046h4.687L16.3,62.1H21.66l1.8.725-4.7,4.606a2.065,2.065,0,0,0,2.89,2.95l5.989-5.863,7.869,3.164a2.63,2.63,0,0,0,1.527,4.773l-3.117,7.311-8.323.088a2.064,2.064,0,1,0,.043,4.127l6.513-.069-.807,1.892-3.688,3.683L25.446,88.9l-3.31,3.31,1.212,4.52,4.52,1.21,3.308-3.308-.594-2.22,3.793-3.791,1.787-.764-.069,6.573a2.066,2.066,0,0,0,4.129.043l.088-8.383,7.978-3.4a2.632,2.632,0,0,0,4.318,2.471l2.924,7.27-5.824,5.946a2.066,2.066,0,1,0,2.952,2.89l4.556-4.653.768,1.907v5.217l-1.989,1.148v4.687l4.052,2.34,4.046-2.34v-4.687L62.1,103.735V98.372l.725-1.8,4.6,4.7a2.065,2.065,0,0,0,2.95-2.89l-5.856-5.989,3.306-8.218a2.632,2.632,0,0,0,4.9-1.073l7.045,3,.088,8.323a2.064,2.064,0,0,0,4.127-.043l-.069-6.513,1.892.807,3.688,3.688L88.9,94.577l3.31,3.31,4.52-1.212,1.21-4.52-3.308-3.308-2.222.6-3.791-3.793-.764-1.787,6.573.069a2.066,2.066,0,0,0,.043-4.129l-8.383-.088-3.5-8.223a2.63,2.63,0,0,0,2.872-4.19l6.974-2.8,5.946,5.824a2.066,2.066,0,1,0,2.89-2.952l-4.653-4.56,1.907-.768h5.215l1.148,1.989h4.687l2.34-4.052ZM83.862,57.928,79,53.065l.38-.163,11.112,4.471-.56.549ZM68.2,54.711l6.024-6.024v3.432Zm-3.964-1.875,2.8-7.026h4.224Zm-2.186-1.95V41.958L64.6,44.5ZM55.3,52.424l-6.614-6.616h3.771Zm-.245-7.54,2.866-2.866v9.533Zm-2.639,10.5-6.605-2.636V48.771Zm-.907,2.6H41.958l2.724-2.724Zm0,4.127L44.871,64.96l-2.853-2.851Zm.955,2.585-6.65,6.65V67.554Zm3.291,2.551-2.789,6.978H48.771Zm2.233,1.83v9L55.41,75.5Zm4.125-1.336L65.2,74.923l-3.087,3.091Zm3.177.429,6.058,6.06H67.891Zm1.542-4.29,7.394,2.947v4.445ZM69.7,62.058H78.07l-2.388,2.388ZM67.7,57.931l7.216-3.1,3.1,3.1Zm11.653-8-1,.429V44.564L82.6,40.31h.845Zm.337-12.534-4.29,4.29h-6.71l.187-.468L79.694,36.6ZM66.627,39.415l-.367.922-4.211-4.209V30.1l.592-.6Zm-8.705-9.3v6.075L53.3,40.8l-.236-.549,4.308-10.7ZM50.33,40.859l.354.822H44.557L40.3,37.427v-.845Zm-12.946-.513,4.29,4.29v6.455l-.6-.236L36.592,40.344ZM39.72,53.278l.787.315-4.389,4.389H30.112l-.6-.592ZM30.1,62.109h6.075l4.608,4.608-.56.24-10.683-4.29Zm10.767,7.56.811-.348v6.146l-4.254,4.26h-.845Zm-.523,12.972,4.29-4.29h6.678l-.193.483-10.788,4.6Zm13.043-2.059.363-.905,4.23,4.228v6.017l-.592.6Zm8.72,9.34V83.853l4.842-4.842.169.388L62.659,90.488ZM70.1,79.337l-.429-.987h5.809L79.732,82.6v.845Zm12.558.348-4.29-4.29V68.463l.354.142,4.719,11.089ZM80.91,66.516l-1.04-.414,4.052-4.052h6.007l.6.592Z" transform="translate(-8.13 -8.13)" fill="#dcf2ff"/>
</svg>
