<svg id="Shark_Logo" xmlns="http://www.w3.org/2000/svg" width="114.082" height="67.75" viewBox="0 0 114.082 67.75">
  <path id="Path_24" data-name="Path 24" d="M1463.412,1515.9c1.507-5.527,3.015-10.216,8.709-18.087-14.906,7.368-14.4,12.9-18.423,9.043-13.049-14.847-26.507-20.907-39.036-21.9-1.319-2.971-3.595-9.292-2.5-15.617-14.9,2.847-15.071,17.372-15.071,17.372h.006c-34.786.715-38.009,22.6-38.008,28.074,0,16.631,54.246,35.835,94.607,6.865,4.02-3.852,3.015,2.251,16.245,10.827C1465.757,1523.905,1464.46,1521.822,1463.412,1515.9Z" transform="translate(-1358.039 -1469.343)" fill="#f09f31"/>
  <path id="Path_25" data-name="Path 25" d="M1362.477,1522.225s16.939,3.836,45.3-12.018c0,12.84-3.817,20.767-18.228,24.8C1383.2,1535,1368.677,1529.746,1362.477,1522.225Z" transform="translate(-1358.039 -1469.343)"/>
  <path id="Path_26" data-name="Path 26" d="M1364.024,1522.069a29.9,29.9,0,0,0,17.628,9.351,81.847,81.847,0,0,1-4.592-10.108s5.786,7.1,12.487,6.845c-2.459-3.147-4.2-9.6-4.2-9.6a14.321,14.321,0,0,0,10.243,5.438,51.351,51.351,0,0,1-3.153-7.691s3.6,5.068,8.4,4.568c-1.624-1.7-3.325-7.35-3.325-7.35s2.938,3.719,7.009,4.277a21.634,21.634,0,0,1-3.174-6.174s2.266,2.747,4.886,2.846a8.112,8.112,0,0,1-1.658-4.264S1374.525,1522.728,1364.024,1522.069Z" transform="translate(-1358.039 -1469.343)" fill="#fff"/>
  <path id="Path_27" data-name="Path 27" d="M1359.091,1512.836c22.561,8.982,55.33-22.5,53.464,0,.67,10.657,8.137,14.9,42.986,7.655h0s-28.025,24.1-69.021,14.224c2.465.56,20.27-1.732,21.255-24.508-10.516,7.145-34.409,15.519-45.3,12.018C1355.949,1519.585,1358.335,1517.129,1359.091,1512.836Z" transform="translate(-1358.039 -1469.343)" fill="#eacf9c"/>
  <g id="Group_6" data-name="Group 6" transform="translate(-1358.039 -1469.343)">
    <ellipse id="Ellipse_32" data-name="Ellipse 32" cx="6.256" cy="5.778" rx="6.256" ry="5.778" transform="translate(1366.731 1494.744)" fill="#fff"/>
    <ellipse id="Ellipse_33" data-name="Ellipse 33" cx="4.966" cy="4.586" rx="4.966" ry="4.586" transform="translate(1368.021 1495.936)"/>
    <ellipse id="Ellipse_34" data-name="Ellipse 34" cx="2.268" cy="2.095" rx="2.268" ry="2.095" transform="translate(1369.255 1496.679)" fill="#fff"/>
    <ellipse id="Ellipse_35" data-name="Ellipse 35" cx="2.268" cy="1.382" rx="2.268" ry="1.382" transform="translate(1373.805 1501.15)" fill="#fff"/>
  </g>
  <g id="Group_7" data-name="Group 7" transform="translate(-1358.039 -1469.343)">
    <ellipse id="Ellipse_36" data-name="Ellipse 36" cx="7.503" cy="6.929" rx="7.503" ry="6.929" transform="translate(1382.718 1492.839)" fill="#fff"/>
    <ellipse id="Ellipse_37" data-name="Ellipse 37" cx="5.955" cy="5.5" rx="5.955" ry="5.5" transform="translate(1384.266 1494.269)"/>
    <ellipse id="Ellipse_38" data-name="Ellipse 38" cx="2.72" cy="2.512" rx="2.72" ry="2.512" transform="translate(1385.746 1495.161)" fill="#fff"/>
    <ellipse id="Ellipse_39" data-name="Ellipse 39" cx="2.72" cy="1.657" rx="2.72" ry="1.657" transform="translate(1391.202 1500.522)" fill="#fff"/>
  </g>
  <ellipse id="Ellipse_40" data-name="Ellipse 40" cx="0.782" cy="1.312" rx="0.782" ry="1.312" transform="translate(2.943 46.694) rotate(-47.473)" fill="#185093"/>
  <ellipse id="Ellipse_41" data-name="Ellipse 41" cx="1.312" cy="0.782" rx="1.312" ry="0.782" transform="translate(5.931 47.315) rotate(-42.527)" fill="#185093"/>
  <path id="Path_28" data-name="Path 28" d="M1414.421,1497.617c1.757,3.018,4.312,8.287,0,13.876" transform="translate(-1358.039 -1469.343)" fill="none" stroke="#185093" stroke-linecap="round" stroke-miterlimit="10" stroke-width="1.675"/>
  <path id="Path_29" data-name="Path 29" d="M1419.508,1497.617c1.756,3.018,4.311,8.287,0,13.876" transform="translate(-1358.039 -1469.343)" fill="none" stroke="#185093" stroke-linecap="round" stroke-miterlimit="10" stroke-width="1.675"/>
  <path id="Path_30" data-name="Path 30" d="M1424.595,1497.617c1.756,3.018,4.311,8.287,0,13.876" transform="translate(-1358.039 -1469.343)" fill="none" stroke="#185093" stroke-linecap="round" stroke-miterlimit="10" stroke-width="1.675"/>
  <path id="Path_31" data-name="Path 31" d="M1433.388,1519.962c-6.348,2.643-9.764.862-12.7-2.3" transform="translate(-1358.039 -1469.343)" fill="none" stroke="#185093" stroke-linecap="round" stroke-miterlimit="10" stroke-width="0.76"/>
  <path id="Path_32" data-name="Path 32" d="M1426.964,1513.5" transform="translate(-1358.039 -1469.343)" fill="none" stroke="#185093" stroke-linecap="round" stroke-miterlimit="10" stroke-width="0.76"/>
  <path id="Path_33" data-name="Path 33" d="M1420.692,1517.665" transform="translate(-1358.039 -1469.343)" fill="none" stroke="#185093" stroke-linecap="round" stroke-miterlimit="10" stroke-width="0.76"/>
  <path id="Path_34" data-name="Path 34" d="M1426.964,1513.5a17.541,17.541,0,0,0,6.424,6.462" transform="translate(-1358.039 -1469.343)" fill="none" stroke="#185093" stroke-linecap="round" stroke-miterlimit="10" stroke-width="0.76"/>
</svg>
