<svg xmlns="http://www.w3.org/2000/svg" width="69.67" height="40.824" viewBox="0 0 69.67 40.824">
  <g id="Shark_Silhouette" data-name="Shark Silhouette" transform="translate(0)">
    <path id="Shark_Silhouette-2" data-name="Shark Silhouette" d="M110.82,137.372c-9.187,4.473-8.877,7.828-11.355,5.49-8.043-9.012-16.339-12.692-24.062-13.292a17.129,17.129,0,0,1-1.54-9.479c-9.187,1.727-9.284,10.544-9.284,10.544h0c-21.443.44-23.43,13.718-23.43,17.041,0,10.095,33.437,21.752,58.315,4.167,2.478-2.338,1.859,1.367,10.013,6.572-2.581-5.205-3.381-6.47-4.025-10.065A29.071,29.071,0,0,1,110.82,137.372Z" transform="translate(-41.15 -120.09)" fill="#00d2ae"/>
  </g>
</svg>
