<svg id="Logo_Shark" data-name="Logo Shark" xmlns="http://www.w3.org/2000/svg" width="150.116" height="89.189" viewBox="0 0 150.116 89.189">
  <path id="Path_1" data-name="Path 1" d="M476.54,204c2-7.28,4-13.45,11.46-23.8-19.62,9.69-19,17-24.24,11.9-17.17-19.54-34.88-27.51-51.37-28.82-1.74-3.91-4.73-12.22-3.29-20.55-19.61,3.75-19.83,22.86-19.83,22.86h0c-45.77.94-50,29.74-50,36.94,0,21.89,71.38,47.16,124.49,9,5.28-5.07,4,3,21.37,14.24C479.62,214.52,477.92,211.78,476.54,204Z" transform="translate(-337.884 -142.73)" fill="#5a9dff"/>
  <path id="Path_2" data-name="Path 2" d="M343.72,212.31s22.29,5.05,59.61-15.82c0,16.9-5,27.33-24,32.63C371,229.12,351.88,222.2,343.72,212.31Z" transform="translate(-337.884 -142.73)"/>
  <path id="Path_3" data-name="Path 3" d="M345.76,212.1A39.36,39.36,0,0,0,369,224.41a107.75,107.75,0,0,1-6-13.3s7.62,9.35,16.43,9c-3.23-4.14-5.53-12.63-5.53-12.63s4.9,6.79,13.48,7.16a67.691,67.691,0,0,1-4.15-10.12s4.73,6.67,11.05,6c-2.13-2.24-4.37-9.67-4.37-9.67s3.86,4.89,9.22,5.62a28.61,28.61,0,0,1-4.18-8.12s3,3.62,6.43,3.74a10.67,10.67,0,0,1-2.18-5.61S359.58,213,345.76,212.1Z" transform="translate(-337.884 -142.73)" fill="#fff"/>
  <path id="Path_4" data-name="Path 4" d="M339.27,200c29.68,11.82,72.8-29.61,70.35,0,.88,14,10.71,19.61,56.56,10.08h0s-36.88,31.71-90.82,18.71c3.24.74,26.67-2.28,28-32.25-13.84,9.41-45.28,20.43-59.61,15.82C335.13,208.83,338.27,205.6,339.27,200Z" transform="translate(-337.884 -142.73)" fill="#d4e8ff"/>
  <g id="Group_1" data-name="Group 1" transform="translate(11.436 33.42)">
    <ellipse id="Ellipse_11" data-name="Ellipse 11" cx="8.23" cy="7.6" rx="8.23" ry="7.6" fill="#fff"/>
    <ellipse id="Ellipse_12" data-name="Ellipse 12" cx="6.53" cy="6.03" rx="6.53" ry="6.03" transform="translate(1.7 1.57)"/>
    <ellipse id="Ellipse_13" data-name="Ellipse 13" cx="2.98" cy="2.76" rx="2.98" ry="2.76" transform="translate(3.33 2.54)" fill="#fff"/>
    <ellipse id="Ellipse_14" data-name="Ellipse 14" cx="2.98" cy="1.82" rx="2.98" ry="1.82" transform="translate(9.31 8.42)" fill="#fff"/>
  </g>
  <g id="Group_2" data-name="Group 2" transform="translate(32.476 30.91)">
    <ellipse id="Ellipse_15" data-name="Ellipse 15" cx="9.87" cy="9.12" rx="9.87" ry="9.12" fill="#fff"/>
    <ellipse id="Ellipse_16" data-name="Ellipse 16" cx="7.84" cy="7.24" rx="7.84" ry="7.24" transform="translate(2.03 1.88)"/>
    <ellipse id="Ellipse_17" data-name="Ellipse 17" cx="3.58" cy="3.31" rx="3.58" ry="3.31" transform="translate(3.98 3.05)" fill="#fff"/>
    <ellipse id="Ellipse_18" data-name="Ellipse 18" cx="3.58" cy="2.18" rx="3.58" ry="2.18" transform="translate(11.16 10.11)" fill="#fff"/>
  </g>
  <ellipse id="Ellipse_19" data-name="Ellipse 19" cx="1.03" cy="1.73" rx="1.03" ry="1.73" transform="matrix(0.676, -0.737, 0.737, 0.676, 3.874, 61.451)" fill="#185093"/>
  <ellipse id="Ellipse_20" data-name="Ellipse 20" cx="1.73" cy="1.03" rx="1.73" ry="1.03" transform="matrix(0.737, -0.676, 0.676, 0.737, 7.797, 62.221)" fill="#185093"/>
  <path id="Path_5" data-name="Path 5" d="M412.07,179.93A14.14,14.14,0,0,1,415,184a12.509,12.509,0,0,1,1.28,5,11,11,0,0,1-1,5.14,10.8,10.8,0,0,1-3.18,4,39.134,39.134,0,0,0,1.56-4.56,16.6,16.6,0,0,0,.45-4.48,22.5,22.5,0,0,0-.69-4.53C413,183.1,412.5,181.57,412.07,179.93Z" transform="translate(-337.884 -142.73)" fill="#185093"/>
  <path id="Path_6" data-name="Path 6" d="M418.77,179.93A14.33,14.33,0,0,1,421.7,184a12.671,12.671,0,0,1,1.27,5,11,11,0,0,1-4.2,9.12,40.993,40.993,0,0,0,1.55-4.56,16.6,16.6,0,0,0,.45-4.48,22.473,22.473,0,0,0-.68-4.53C419.7,183.1,419.19,181.57,418.77,179.93Z" transform="translate(-337.884 -142.73)" fill="#185093"/>
  <path id="Path_7" data-name="Path 7" d="M425.46,179.93a14.33,14.33,0,0,1,2.93,4.11,12.67,12.67,0,0,1,1.27,5,11,11,0,0,1-4.2,9.12,39,39,0,0,0,1.55-4.56,15.841,15.841,0,0,0,.45-4.48,22.473,22.473,0,0,0-.68-4.53C426.4,183.1,425.88,181.57,425.46,179.93Z" transform="translate(-337.884 -142.73)" fill="#185093"/>
  <path id="Path_8" data-name="Path 8" d="M437,209.33a17.759,17.759,0,0,1-4.3,1.76,12.27,12.27,0,0,1-4.72.3,10.27,10.27,0,0,1-4.41-1.77,13.7,13.7,0,0,1-3.27-3.31A25.24,25.24,0,0,0,424,209a11.63,11.63,0,0,0,4.13,1.44,15,15,0,0,0,4.43-.07C434.06,210.09,435.53,209.72,437,209.33Z" transform="translate(-337.884 -142.73)" fill="#185093"/>
  <path id="Path_9" data-name="Path 9" d="M428.58,200.83c1.35,1.55,2.62,3.06,4,4.48.68.72,1.4,1.39,2.13,2.07s1.52,1.28,2.31,2a10.05,10.05,0,0,1-2.78-1.34,14.12,14.12,0,0,1-2.38-2,16.379,16.379,0,0,1-1.92-2.41,12,12,0,0,1-1.36-2.8Z" transform="translate(-337.884 -142.73)" fill="#185093"/>
</svg>
