<svg xmlns="http://www.w3.org/2000/svg" width="107.67" height="62.824" viewBox="0 0 107.67 62.824">
  <g id="Shark_Silhouette" data-name="Shark Silhouette" transform="translate(0 0)">
    <path id="Shark_Silhouette-2" data-name="Shark Silhouette" d="M148.82,146.685c-14.2,6.884-13.719,12.046-17.548,8.448-12.43-13.869-25.251-19.532-37.185-20.456-1.258-2.776-3.425-8.68-2.379-14.587-14.2,2.657-14.348,16.227-14.348,16.227h0c-33.139.677-36.209,21.111-36.209,26.225,0,15.535,51.674,33.474,90.122,6.412,3.829-3.6,2.873,2.1,15.475,10.114-3.99-8.011-5.225-9.957-6.221-15.489C141.96,158.417,143.4,154.038,148.82,146.685Z" transform="translate(-41.15 -120.09)" fill="#00d2ae"/>
  </g>
</svg>
