<svg xmlns="http://www.w3.org/2000/svg" width="55.78" height="55.78" viewBox="0 0 55.78 55.78">
  <g id="Snowflake" transform="translate(0)">
    <path id="Snowflake-2" data-name="Snowflake" d="M62.652,33.827H60.133L59.516,34.9H56.633l-.969-.39,2.524-2.472a1.11,1.11,0,0,0-1.553-1.585L53.417,33.6,49,31.821a1.415,1.415,0,0,0-.54-2.713L50.042,25.4l4.474-.047a1.109,1.109,0,0,0-.023-2.218l-3.5.037.434-1.017,1.982-1.982,1.191.319,1.779-1.779-.651-2.429-2.429-.65-1.778,1.779.319,1.193L49.8,20.645l-.96.41.037-3.533a1.11,1.11,0,0,0-2.22-.023l-.047,4.506-4.275,1.823A1.415,1.415,0,0,0,40,22.344l-.047.052-1.528-3.8,3.13-3.2a1.11,1.11,0,1,0-1.587-1.553l-2.449,2.5-.413-1.025v-2.8L38.18,11.9V9.383L36,8.13,33.827,9.383V11.9l1.069.617V15.4l-.39.969-2.475-2.524A1.11,1.11,0,0,0,30.445,15.4L33.6,18.619,31.9,22.828a1.416,1.416,0,0,0-2.652.692c0,.039,0,.078,0,.115L25.393,21.99l-.047-4.474a1.109,1.109,0,0,0-2.218.023l.037,3.5-1.017-.434-1.972-1.979.319-1.191-1.779-1.779-2.429.651-.65,2.429,1.778,1.778,1.193-.319,2.037,2.039.41.96-3.533-.037a1.11,1.11,0,0,0-.023,2.22l4.506.047,1.765,4.142a1.416,1.416,0,0,0-1.278,2.389l.063.058L18.6,33.607l-3.2-3.13a1.11,1.11,0,1,0-1.553,1.587l2.5,2.449-1.025.413h-2.8L11.9,33.856H9.383L8.13,36.034l1.253,2.175H11.9l.617-1.069H15.4l.969.39L13.847,40A1.11,1.11,0,0,0,15.4,41.59l3.219-3.151,4.229,1.7a1.414,1.414,0,0,0,.821,2.565l-1.675,3.929-4.474.047a1.109,1.109,0,1,0,.023,2.218l3.5-.037L20.61,49.88l-1.982,1.98-1.191-.319L15.658,53.32l.651,2.429,2.429.65,1.778-1.778L20.2,53.428l2.039-2.037.96-.41-.037,3.533a1.11,1.11,0,0,0,2.22.023l.047-4.506L29.714,48.2a1.415,1.415,0,0,0,2.321,1.328l1.572,3.908-3.13,3.2a1.11,1.11,0,1,0,1.587,1.553l2.449-2.5.413,1.025v2.8l-1.069.617v2.519l2.178,1.258,2.175-1.258V60.133l-1.069-.617V56.633l.39-.969L40,58.189a1.11,1.11,0,0,0,1.585-1.553l-3.148-3.219L40.216,49a1.415,1.415,0,0,0,2.631-.576l3.786,1.614.047,4.474a1.109,1.109,0,0,0,2.218-.023l-.037-3.5,1.017.434L51.861,53.4l-.319,1.191,1.779,1.779,2.429-.651.65-2.429-1.778-1.778-1.195.324L51.391,49.8l-.41-.96,3.533.037a1.11,1.11,0,0,0,.023-2.22l-4.506-.047L48.147,42.19a1.414,1.414,0,0,0,1.544-2.252l3.748-1.507,3.2,3.13a1.11,1.11,0,1,0,1.553-1.587l-2.5-2.451,1.025-.413h2.8l.617,1.069h2.519L63.91,36ZM48.834,34.9l-2.615-2.614.2-.088L52.4,34.6l-.3.3Zm-8.417-1.73,3.238-3.238v1.845Zm-2.131-1.008,1.506-3.776h2.27Zm-1.175-1.048v-4.8l1.369,1.369Zm-3.631.827-3.555-3.556h2.027Zm-.131-4.053,1.54-1.54v5.124Zm-1.418,5.642-3.55-1.417V29.974Zm-.488,1.4H26.312l1.464-1.464Zm0,2.218-3.566,1.532-1.533-1.532Zm.513,1.389-3.574,3.574V40.069ZM33.726,39.9l-1.5,3.751H29.974Zm1.2.984v4.837L33.542,44.34Zm2.217-.718L38.8,44.03l-1.659,1.661Zm1.708.231,3.256,3.257H40.25Zm.829-2.306,3.974,1.584v2.389Zm1.545-.978h4.5L44.438,38.4ZM40.145,34.9l3.879-1.667L45.691,34.9Zm6.263-4.3-.536.231V27.713l2.286-2.286h.454Zm.181-6.737-2.306,2.306H40.677l.1-.251,5.817-2.48Zm-7.018,1.087-.2.5-2.263-2.262V19.94l.318-.324Zm-4.679-5V23.21l-2.484,2.479-.127-.3L34.6,19.645Zm-4.08,5.777.19.442H27.709l-2.286-2.286v-.454Zm-6.958-.276,2.306,2.306v3.469l-.321-.127-2.411-5.65Zm1.256,6.95.423.169-2.359,2.359H19.945l-.324-.318ZM19.94,37.143h3.265l2.477,2.477-.3.129-5.742-2.306Zm5.787,4.063.436-.187v3.3l-2.286,2.29h-.454Zm-.281,6.972,2.306-2.306h3.589l-.1.259-5.8,2.472Zm7.01-1.107.195-.487,2.274,2.273v3.234l-.318.324Zm4.687,5.02V48.83l2.6-2.6.091.209-2.4,5.96ZM41.437,46.4l-.231-.53h3.122l2.286,2.286v.454Zm6.75.187L45.88,44.284V40.558l.19.076,2.537,5.96Zm-.939-7.078-.559-.223,2.178-2.178H52.1l.324.318Z" transform="translate(-8.13 -8.13)" fill="#dcf2ff"/>
  </g>
</svg>
