<svg id="Tropical" xmlns="http://www.w3.org/2000/svg" width="103.727" height="103.727" viewBox="0 0 103.727 103.727">
  <g id="Sun">
    <path id="Path_21" data-name="Path 21" d="M55.064,12l8.073,21.732L81,18.949,77.121,41.807l22.857-3.875L85.2,55.791l21.732,8.073L85.2,71.938,99.978,89.8,77.121,85.923,81,108.78,63.136,94l-8.073,21.732L46.989,94,29.132,108.78,33,85.923,10.147,89.8,24.932,71.938,3.2,63.864l21.732-8.073L10.147,37.932,33,41.807,29.132,18.949,46.989,33.732Z" transform="translate(-3.2 -12)" fill="#ea4800"/>
    <path id="Path_22" data-name="Path 22" d="M23.291,0A23.291,23.291,0,1,1,0,23.291,23.291,23.291,0,0,1,23.291,0Z" transform="translate(28.631 28.513)" fill="#ffc91d"/>
  </g>
</svg>
