<svg xmlns="http://www.w3.org/2000/svg" width="140" height="187" viewBox="0 0 140 187">
  <g id="Group_24" data-name="Group 24" transform="translate(-106 -637)">
    <g id="Rectangle_46" data-name="Rectangle 46" transform="translate(106 637)" fill="#0d1e4b" stroke="#707070" stroke-width="1">
      <rect width="140" height="187" stroke="none"/>
      <rect x="0.5" y="0.5" width="139" height="186" fill="none"/>
    </g>
    <g id="Rectangle_48" data-name="Rectangle 48" transform="translate(117 653)" fill="#fff" stroke="#707070" stroke-width="1">
      <rect width="118" height="64" rx="15" stroke="none"/>
      <rect x="0.5" y="0.5" width="117" height="63" rx="14.5" fill="none"/>
    </g>
    <g id="Green" transform="translate(117 790)">
      <circle id="Green-2" data-name="Green" cx="9" cy="9" r="9" fill="#55c642"/>
    </g>
    <g id="Orange" transform="translate(138 790)" opacity="0.25">
      <circle id="Orange-2" data-name="Orange" cx="9" cy="9" r="9" fill="#ff7f00"/>
    </g>
    <g id="Red" transform="translate(158 790)" opacity="0.25">
      <circle id="Red-2" data-name="Red" cx="9" cy="9" r="9" fill="#ea0a0a"/>
    </g>
    <g id="Logo_Shark" data-name="Logo Shark" transform="translate(141.538 662.417)">
      <path id="Path_1" data-name="Path 1" d="M401.575,170.539a29.12,29.12,0,0,1,5.2-10.8c-8.905,4.4-8.624,7.716-11,5.4-7.793-8.869-15.831-12.486-23.316-13.081a17.079,17.079,0,0,1-1.493-9.327c-8.9,1.7-9,10.376-9,10.376h0c-20.774.427-22.694,13.5-22.694,16.766,0,9.936,32.4,21.405,56.5,4.085,2.4-2.3,1.816,1.362,9.7,6.463C402.973,175.314,402.2,174.071,401.575,170.539Z" transform="translate(-338.641 -142.73)" fill="#5a9dff"/>
      <path id="Path_2" data-name="Path 2" d="M343.72,203.67s10.117,2.292,27.056-7.18c0,7.671-2.269,12.4-10.893,14.81C356.1,211.3,347.424,208.159,343.72,203.67Z" transform="translate(-341.071 -172.089)"/>
      <path id="Path_3" data-name="Path 3" d="M345.76,203.57a17.865,17.865,0,0,0,10.548,5.587,48.9,48.9,0,0,1-2.723-6.037s3.459,4.244,7.457,4.085a20.584,20.584,0,0,1-2.51-5.733,8.566,8.566,0,0,0,6.118,3.25,30.724,30.724,0,0,1-1.884-4.593s2.147,3.027,5.015,2.723c-.967-1.017-1.983-4.389-1.983-4.389a7.41,7.41,0,0,0,4.185,2.551,12.986,12.986,0,0,1-1.9-3.686,4.85,4.85,0,0,0,2.918,1.7,4.843,4.843,0,0,1-.989-2.546S352.033,203.978,345.76,203.57Z" transform="translate(-342.185 -172.084)" fill="#fff"/>
      <path id="Path_4" data-name="Path 4" d="M338.513,194.05c13.471,5.365,33.043-13.439,31.931,0,.4,6.354,4.861,8.9,25.672,4.575h0a48.764,48.764,0,0,1-41.222,8.492c1.471.336,12.105-1.035,12.709-14.638-6.282,4.271-20.552,9.273-27.056,7.18C336.634,198.057,338.059,196.591,338.513,194.05Z" transform="translate(-337.884 -168.056)" fill="#d4e8ff"/>
      <g id="Group_1" data-name="Group 1" transform="translate(5.19 15.169)">
        <ellipse id="Ellipse_11" data-name="Ellipse 11" cx="3.735" cy="3.45" rx="3.735" ry="3.45" fill="#fff"/>
        <ellipse id="Ellipse_12" data-name="Ellipse 12" cx="2.964" cy="2.737" rx="2.964" ry="2.737" transform="translate(0.772 0.713)"/>
        <ellipse id="Ellipse_13" data-name="Ellipse 13" cx="1.353" cy="1.253" rx="1.353" ry="1.253" transform="translate(1.511 1.153)" fill="#fff"/>
        <ellipse id="Ellipse_14" data-name="Ellipse 14" cx="1.353" cy="0.826" rx="1.353" ry="0.826" transform="translate(4.226 3.822)" fill="#fff"/>
      </g>
      <g id="Group_2" data-name="Group 2" transform="translate(14.74 14.03)">
        <ellipse id="Ellipse_15" data-name="Ellipse 15" cx="4.48" cy="4.139" rx="4.48" ry="4.139" fill="#fff"/>
        <ellipse id="Ellipse_16" data-name="Ellipse 16" cx="3.558" cy="3.286" rx="3.558" ry="3.286" transform="translate(0.921 0.853)"/>
        <ellipse id="Ellipse_17" data-name="Ellipse 17" cx="1.625" cy="1.502" rx="1.625" ry="1.502" transform="translate(1.806 1.384)" fill="#fff"/>
        <ellipse id="Ellipse_18" data-name="Ellipse 18" cx="1.625" cy="0.989" rx="1.625" ry="0.989" transform="translate(5.065 4.589)" fill="#fff"/>
      </g>
      <ellipse id="Ellipse_19" data-name="Ellipse 19" cx="0.468" cy="0.785" rx="0.468" ry="0.785" transform="matrix(0.676, -0.737, 0.737, 0.676, 1.758, 27.891)" fill="#185093"/>
      <ellipse id="Ellipse_20" data-name="Ellipse 20" cx="0.785" cy="0.468" rx="0.785" ry="0.468" transform="matrix(0.737, -0.676, 0.676, 0.737, 3.539, 28.241)" fill="#185093"/>
      <path id="Path_5" data-name="Path 5" d="M412.07,179.93a6.419,6.419,0,0,1,1.33,1.847,5.679,5.679,0,0,1,.581,2.269,4.993,4.993,0,0,1-.454,2.333,4.9,4.9,0,0,1-1.443,1.816,17.766,17.766,0,0,0,.708-2.07,7.535,7.535,0,0,0,.2-2.033,10.207,10.207,0,0,0-.313-2.056C412.492,181.369,412.265,180.674,412.07,179.93Z" transform="translate(-378.398 -163.046)" fill="#185093"/>
      <path id="Path_6" data-name="Path 6" d="M418.77,179.93a6.5,6.5,0,0,1,1.33,1.847,5.751,5.751,0,0,1,.576,2.269,4.993,4.993,0,0,1-1.906,4.139,18.6,18.6,0,0,0,.7-2.07,7.535,7.535,0,0,0,.2-2.033,10.2,10.2,0,0,0-.309-2.056C419.192,181.369,418.961,180.674,418.77,179.93Z" transform="translate(-382.057 -163.046)" fill="#185093"/>
      <path id="Path_7" data-name="Path 7" d="M425.46,179.93a6.5,6.5,0,0,1,1.33,1.865,5.751,5.751,0,0,1,.576,2.269,4.993,4.993,0,0,1-1.906,4.139,17.7,17.7,0,0,0,.7-2.07,7.19,7.19,0,0,0,.2-2.033,10.2,10.2,0,0,0-.309-2.056C425.887,181.369,425.651,180.674,425.46,179.93Z" transform="translate(-385.711 -163.046)" fill="#185093"/>
      <path id="Path_8" data-name="Path 8" d="M427.88,207.681a8.062,8.062,0,0,1-1.952.8,5.569,5.569,0,0,1-2.142.136,4.661,4.661,0,0,1-2-.8,6.218,6.218,0,0,1-1.484-1.5,11.458,11.458,0,0,0,1.679,1.221,5.279,5.279,0,0,0,1.875.654,6.808,6.808,0,0,0,2.011-.032C426.545,208.026,427.213,207.858,427.88,207.681Z" transform="translate(-382.893 -177.452)" fill="#185093"/>
      <path id="Path_9" data-name="Path 9" d="M428.58,200.83c.613.7,1.189,1.389,1.816,2.033.309.327.635.631.967.94s.69.581,1.048.908a4.562,4.562,0,0,1-1.262-.608,6.407,6.407,0,0,1-1.08-.908,7.433,7.433,0,0,1-.871-1.094,5.446,5.446,0,0,1-.617-1.271Z" transform="translate(-387.415 -174.459)" fill="#185093"/>
    </g>
    <g id="Shark_Silhouette" data-name="Shark Silhouette" transform="translate(117.063 736.4)">
      <path id="Shark_Silhouette-2" data-name="Shark Silhouette" d="M72.772,127.934c-4.17,2.03-4.029,3.553-5.154,2.492-3.651-4.091-7.416-5.761-10.921-6.033a7.775,7.775,0,0,1-.7-4.3,5.035,5.035,0,0,0-4.214,4.786h0c-9.733.2-10.634,6.226-10.634,7.735,0,4.582,15.176,9.873,26.468,1.891,1.125-1.061.844.62,4.545,2.983-1.172-2.363-1.535-2.937-1.827-4.568A13.2,13.2,0,0,1,72.772,127.934Z" transform="translate(-41.15 -120.09)" fill="#00d2ae"/>
    </g>
    <g id="Snowflake" transform="translate(117.063 759.549)">
      <path id="Snowflake-2" data-name="Snowflake" d="M32.877,19.793H31.733l-.28.485H30.145l-.44-.177,1.146-1.122a.5.5,0,0,0-.7-.72l-1.461,1.429-2-.806a.642.642,0,0,0-.245-1.231l.717-1.682,2.031-.021a.5.5,0,0,0-.01-1.007l-1.589.017.2-.462.9-.9.541.145.807-.807-.3-1.1-1.1-.3-.807.807.145.542-.925.925L26.607,14l.017-1.6a.5.5,0,0,0-1.007-.01L25.6,14.428l-1.941.827a.642.642,0,0,0-1.058-.674l-.021.024-.693-1.725L23.3,11.43a.5.5,0,1,0-.72-.705L21.471,11.86l-.187-.465V10.122l.485-.28V8.7L20.78,8.13l-.987.569V9.842l.485.28v1.308l-.177.44-1.124-1.146a.5.5,0,0,0-.72.7l1.43,1.461L18.921,14.8a.643.643,0,0,0-1.2.314v.052l-1.752-.747-.021-2.031a.5.5,0,0,0-1.007.01l.017,1.589-.462-.2-.895-.9.145-.541-.807-.807-1.1.3-.3,1.1.807.807.542-.145.925.925.186.436-1.6-.017a.5.5,0,0,0-.01,1.007l2.045.021.8,1.88a.643.643,0,0,0-.58,1.084l.029.026-1.8.723L11.43,18.273a.5.5,0,1,0-.705.72L11.86,20.1l-.465.187H10.122l-.28-.485H8.7L8.13,20.8l.569.987H9.842l.28-.485h1.308l.44.177L10.725,22.6a.5.5,0,0,0,.7.72l1.461-1.43,1.92.772a.642.642,0,0,0,.373,1.164l-.76,1.784-2.031.021a.5.5,0,1,0,.01,1.007l1.589-.017-.2.462-.9.9-.541-.145-.807.807.3,1.1,1.1.3.807-.807-.145-.542.925-.925.436-.186-.017,1.6a.5.5,0,0,0,1.007.01l.021-2.045,1.946-.829a.642.642,0,0,0,1.053.6l.713,1.774-1.421,1.451a.5.5,0,1,0,.72.705L20.1,29.715l.187.465v1.273l-.485.28v1.143l.989.571.987-.571V31.733l-.485-.28V30.145l.177-.44L22.6,30.851a.5.5,0,0,0,.72-.7l-1.429-1.461.806-2a.642.642,0,0,0,1.194-.262l1.719.733.021,2.031a.5.5,0,1,0,1.007-.01l-.017-1.589.462.2.9.9-.145.541.807.807,1.1-.3.3-1.1-.807-.807-.542.147-.925-.925-.186-.436,1.6.017a.5.5,0,0,0,.01-1.007L27.148,25.6l-.855-2.006a.642.642,0,0,0,.7-1.022l1.7-.684L30.146,23.3a.5.5,0,1,0,.705-.72l-1.135-1.113.465-.187h1.272l.28.485h1.143l.571-.989Zm-6.272.485-1.187-1.186.093-.04,2.711,1.091-.137.134Zm-3.82-.785,1.47-1.47v.837Zm-.967-.457.683-1.714h1.03Zm-.533-.476V16.382l.621.621Zm-1.648.375-1.613-1.614h.92Zm-.06-1.84.7-.7v2.326Zm-.644,2.561-1.611-.643v-.969Zm-.221.635H16.382l.665-.665Zm0,1.007-1.619.7-.7-.7Zm.233.631-1.622,1.622v-.925Zm.8.622-.68,1.7H18.044Zm.545.446v2.2l-.628-.628Zm1.006-.326.753,1.753-.753.754Zm.775.1,1.478,1.478h-.843Zm.376-1.047,1.8.719v1.084Zm.7-.444h2.041l-.582.582Zm-.49-1.007,1.76-.757.757.757ZM25.5,18.327l-.243.1V17.018L26.3,15.98H26.5Zm.082-3.058L24.54,16.315H22.9l.046-.114,2.64-1.126Zm-3.186.493-.089.225L21.284,14.96V13.49l.144-.147Zm-2.124-2.27v1.482L19.15,16.1l-.058-.134,1.051-2.609Zm-1.852,2.622.086.2H17.017l-1.038-1.038v-.206Zm-3.158-.125,1.047,1.047v1.575l-.145-.058-1.094-2.564Zm.57,3.155.192.077-1.071,1.071H13.493l-.147-.144ZM13.49,21.3h1.482L16.1,22.423l-.137.059-2.606-1.047Zm2.627,1.844.2-.085v1.5L15.277,25.6h-.206Zm-.128,3.165,1.047-1.047h1.629l-.047.118L15.986,26.5Zm3.182-.5.088-.221,1.032,1.031v1.468l-.144.147ZM21.3,28.084V26.6l1.181-1.181.041.095-1.089,2.705ZM23.247,25.5l-.1-.241H24.56L25.6,26.3V26.5Zm3.064.085L25.264,24.54V22.849l.086.035L26.5,25.588Zm-.426-3.213-.254-.1.989-.989h1.465l.147.144Z" transform="translate(-8.13 -8.13)" fill="#dcf2ff"/>
    </g>
  </g>
</svg>
