<svg xmlns="http://www.w3.org/2000/svg" xmlns:xlink="http://www.w3.org/1999/xlink" width="106" height="208" viewBox="0 0 106 208">
  <defs>
    <filter id="Ellipse_42" x="11" y="126" width="35" height="35" filterUnits="userSpaceOnUse">
      <feOffset input="SourceAlpha"/>
      <feGaussianBlur stdDeviation="3" result="blur"/>
      <feFlood flood-color="#55c642" flood-opacity="0.624"/>
      <feComposite operator="in" in2="blur"/>
      <feComposite in="SourceGraphic"/>
    </filter>
  </defs>
  <g id="Group_24" data-name="Group 24" transform="translate(-106 -637)">
    <g id="Rectangle_46" data-name="Rectangle 46" transform="translate(106 637)" fill="#0d1e4b" stroke="#707070" stroke-width="1">
      <rect width="106" height="208" stroke="none"/>
      <rect x="0.5" y="0.5" width="105" height="207" fill="none"/>
    </g>
    <g id="Rectangle_48" data-name="Rectangle 48" transform="translate(114 649)" fill="#fff" stroke="#707070" stroke-width="1">
      <rect width="90" height="49" rx="15" stroke="none"/>
      <rect x="0.5" y="0.5" width="89" height="48" rx="14.5" fill="none"/>
    </g>
    <g id="Logo_Shark" data-name="Logo Shark" transform="translate(132.907 656.245)">
      <path id="Path_1" data-name="Path 1" d="M386.443,163.786a22.048,22.048,0,0,1,3.938-8.179c-6.742,3.33-6.529,5.842-8.33,4.089-5.9-6.715-11.987-9.454-17.654-9.9a12.93,12.93,0,0,1-1.131-7.062,8.255,8.255,0,0,0-6.815,7.856h0c-15.729.323-17.183,10.22-17.183,12.695,0,7.523,24.53,16.207,42.782,3.093,1.815-1.742,1.375,1.031,7.344,4.894C387.5,167.4,386.918,166.459,386.443,163.786Z" transform="translate(-338.794 -142.73)" fill="#5a9dff"/>
      <path id="Path_2" data-name="Path 2" d="M343.72,201.927s7.66,1.735,20.485-5.437c0,5.808-1.718,9.392-8.248,11.213C353.095,207.7,346.524,205.325,343.72,201.927Z" transform="translate(-341.715 -178.015)"/>
      <path id="Path_3" data-name="Path 3" d="M345.76,201.848a13.527,13.527,0,0,0,7.987,4.23,37.028,37.028,0,0,1-2.062-4.571s2.619,3.213,5.646,3.093a15.586,15.586,0,0,1-1.9-4.34,6.486,6.486,0,0,0,4.633,2.461,23.256,23.256,0,0,1-1.426-3.478s1.625,2.292,3.8,2.062a12.2,12.2,0,0,1-1.5-3.323,5.61,5.61,0,0,0,3.168,1.931,9.832,9.832,0,0,1-1.436-2.79,3.672,3.672,0,0,0,2.21,1.285,3.666,3.666,0,0,1-.749-1.928S350.509,202.157,345.76,201.848Z" transform="translate(-343.054 -178.009)" fill="#fff"/>
      <path id="Path_4" data-name="Path 4" d="M338.361,192.848c10.2,4.062,25.018-10.176,24.176,0,.3,4.811,3.681,6.739,19.437,3.464h0a36.922,36.922,0,0,1-31.211,6.43c1.113.254,9.165-.784,9.622-11.083-4.756,3.234-15.561,7.021-20.485,5.437C336.938,195.883,338.017,194.773,338.361,192.848Z" transform="translate(-337.884 -173.167)" fill="#d4e8ff"/>
      <g id="Group_1" data-name="Group 1" transform="translate(3.93 11.485)">
        <ellipse id="Ellipse_11" data-name="Ellipse 11" cx="2.828" cy="2.612" rx="2.828" ry="2.612" fill="#fff"/>
        <ellipse id="Ellipse_12" data-name="Ellipse 12" cx="2.244" cy="2.072" rx="2.244" ry="2.072" transform="translate(0.584 0.54)"/>
        <ellipse id="Ellipse_13" data-name="Ellipse 13" cx="1.024" cy="0.948" rx="1.024" ry="0.948" transform="translate(1.144 0.873)" fill="#fff"/>
        <ellipse id="Ellipse_14" data-name="Ellipse 14" cx="1.024" cy="0.625" rx="1.024" ry="0.625" transform="translate(3.199 2.894)" fill="#fff"/>
      </g>
      <g id="Group_2" data-name="Group 2" transform="translate(11.16 10.622)">
        <ellipse id="Ellipse_15" data-name="Ellipse 15" cx="3.392" cy="3.134" rx="3.392" ry="3.134" fill="#fff"/>
        <ellipse id="Ellipse_16" data-name="Ellipse 16" cx="2.694" cy="2.488" rx="2.694" ry="2.488" transform="translate(0.698 0.646)"/>
        <ellipse id="Ellipse_17" data-name="Ellipse 17" cx="1.23" cy="1.137" rx="1.23" ry="1.137" transform="translate(1.368 1.048)" fill="#fff"/>
        <ellipse id="Ellipse_18" data-name="Ellipse 18" cx="1.23" cy="0.749" rx="1.23" ry="0.749" transform="translate(3.835 3.474)" fill="#fff"/>
      </g>
      <ellipse id="Ellipse_19" data-name="Ellipse 19" cx="0.354" cy="0.595" rx="0.354" ry="0.595" transform="matrix(0.676, -0.737, 0.737, 0.676, 1.331, 21.118)" fill="#185093"/>
      <ellipse id="Ellipse_20" data-name="Ellipse 20" cx="0.595" cy="0.354" rx="0.595" ry="0.354" transform="matrix(0.737, -0.676, 0.676, 0.737, 2.68, 21.383)" fill="#185093"/>
      <path id="Path_5" data-name="Path 5" d="M412.07,179.93a4.86,4.86,0,0,1,1.007,1.4,4.3,4.3,0,0,1,.44,1.718,3.78,3.78,0,0,1-.344,1.766,3.711,3.711,0,0,1-1.093,1.375,13.459,13.459,0,0,0,.536-1.567,5.705,5.705,0,0,0,.155-1.54,7.732,7.732,0,0,0-.237-1.557C412.39,181.019,412.218,180.494,412.07,179.93Z" transform="translate(-386.576 -167.146)" fill="#185093"/>
      <path id="Path_6" data-name="Path 6" d="M418.77,179.93a4.925,4.925,0,0,1,1.007,1.4,4.354,4.354,0,0,1,.436,1.718,3.78,3.78,0,0,1-1.443,3.134,14.085,14.085,0,0,0,.533-1.567,5.7,5.7,0,0,0,.155-1.54,7.723,7.723,0,0,0-.234-1.557C419.09,181.019,418.914,180.494,418.77,179.93Z" transform="translate(-390.973 -167.146)" fill="#185093"/>
      <path id="Path_7" data-name="Path 7" d="M425.46,179.93a4.925,4.925,0,0,1,1.007,1.412,4.354,4.354,0,0,1,.436,1.718,3.78,3.78,0,0,1-1.443,3.134,13.4,13.4,0,0,0,.533-1.567,5.443,5.443,0,0,0,.155-1.54,7.725,7.725,0,0,0-.234-1.557C425.783,181.019,425.6,180.494,425.46,179.93Z" transform="translate(-395.364 -167.146)" fill="#185093"/>
      <path id="Path_8" data-name="Path 8" d="M426.039,207.348a6.1,6.1,0,0,1-1.478.6,4.217,4.217,0,0,1-1.622.1,3.529,3.529,0,0,1-1.516-.608,4.708,4.708,0,0,1-1.124-1.137,8.678,8.678,0,0,0,1.272.924,4,4,0,0,0,1.419.495,5.155,5.155,0,0,0,1.522-.024C425.029,207.609,425.534,207.482,426.039,207.348Z" transform="translate(-391.977 -184.46)" fill="#185093"/>
      <path id="Path_9" data-name="Path 9" d="M428.58,200.83c.464.533.9,1.052,1.375,1.54.234.247.481.478.732.711s.522.44.794.687a3.454,3.454,0,0,1-.955-.46,4.853,4.853,0,0,1-.818-.687,5.632,5.632,0,0,1-.66-.828,4.123,4.123,0,0,1-.467-.962Z" transform="translate(-397.412 -180.864)" fill="#185093"/>
    </g>
    <g id="Shark_Silhouette" data-name="Shark Silhouette" transform="translate(124.933 714.438)">
      <path id="Shark_Silhouette-2" data-name="Shark Silhouette" d="M65.092,126.029c-3.157,1.537-3.051,2.69-3.9,1.887-2.764-3.1-5.615-4.362-8.269-4.568a5.886,5.886,0,0,1-.529-3.258,3.813,3.813,0,0,0-3.191,3.624h0c-7.369.151-8.052,4.714-8.052,5.856,0,3.469,11.491,7.475,20.04,1.432.852-.8.639.47,3.441,2.259a11.032,11.032,0,0,1-1.383-3.459A9.99,9.99,0,0,1,65.092,126.029Z" transform="translate(-41.15 -120.09)" fill="#00d2ae"/>
    </g>
    <g id="Snowflake" transform="translate(124.934 740.796)">
      <path id="Snowflake-2" data-name="Snowflake" d="M26.867,16.961H26l-.212.367H24.8l-.333-.134.867-.85A.381.381,0,1,0,24.8,15.8l-1.106,1.082-1.518-.61a.486.486,0,0,0-.185-.932l.543-1.273,1.537-.016a.381.381,0,0,0-.008-.762l-1.2.013.149-.349.681-.681.409.11.611-.611-.224-.835-.835-.223-.611.611.11.41-.7.7-.33.141.013-1.214a.382.382,0,0,0-.763-.008L21.354,12.9l-1.469.626a.486.486,0,0,0-.8-.51l-.016.018-.525-1.306,1.076-1.1a.382.382,0,1,0-.545-.534l-.842.859-.142-.352V9.638l.367-.212V8.561l-.748-.431-.747.431v.866l.367.212v.991l-.134.333-.851-.867a.381.381,0,0,0-.545.534l1.083,1.106L16.3,13.181a.487.487,0,0,0-.911.238v.04l-1.326-.565-.016-1.537a.381.381,0,0,0-.762.008l.013,1.2-.349-.149-.678-.68.11-.409-.611-.611-.835.224-.223.835.611.611.41-.11.7.7.141.33-1.214-.013a.382.382,0,0,0-.008.763l1.548.016L13.5,15.5a.487.487,0,0,0-.439.821l.022.02-1.361.547-1.1-1.076a.382.382,0,1,0-.534.545l.859.842-.352.142H9.638l-.212-.367H8.561l-.431.748.431.747h.866l.212-.367h.991l.333.134-.867.851a.381.381,0,0,0,.534.545l1.106-1.083,1.453.584a.486.486,0,0,0,.282.882l-.576,1.35-1.537.016a.381.381,0,1,0,.008.762l1.2-.013-.149.349-.681.68-.409-.11-.611.611.224.835.835.223.611-.611-.11-.41.7-.7.33-.141-.013,1.214a.382.382,0,0,0,.763.008l.016-1.548,1.474-.628a.486.486,0,0,0,.8.456l.54,1.343-1.076,1.1a.382.382,0,1,0,.545.534l.842-.859.142.352v.964L16.971,26v.866l.748.432.747-.432V26l-.367-.212V24.8l.134-.333.85.867a.381.381,0,0,0,.545-.534l-1.082-1.106.611-1.518a.486.486,0,0,0,.9-.2l1.3.555.016,1.537a.381.381,0,1,0,.762-.008l-.013-1.2.349.149.681.681-.11.409.611.611.835-.224.223-.835-.611-.611-.411.111-.7-.7-.141-.33,1.214.013a.382.382,0,0,0,.008-.763l-1.548-.016-.647-1.519a.486.486,0,0,0,.531-.774l1.288-.518,1.1,1.076a.382.382,0,1,0,.534-.545l-.859-.842.352-.142h.963l.212.367h.866l.432-.748Zm-4.748.367-.9-.9.07-.03,2.052.826-.1.1Zm-2.893-.594,1.113-1.113v.634Zm-.732-.346.517-1.3h.78Zm-.4-.36V14.378l.47.47Zm-1.248.284L15.62,15.089h.7ZM16.8,14.919l.529-.529V16.15Zm-.487,1.939-1.22-.487v-.734Zm-.168.481H14.378l.5-.5Zm0,.762-1.226.527-.527-.527Zm.176.477L15.09,19.806v-.7Zm.608.471-.515,1.289h-.774Zm.412.338v1.662l-.475-.475Zm.762-.247.57,1.327-.57.571Zm.587.079,1.119,1.119h-.638Zm.285-.792,1.366.544v.821Zm.531-.336h1.545l-.441.441Zm-.371-.762,1.333-.573.573.573Zm2.152-1.478-.184.079V14.86l.786-.786h.156Zm.062-2.315-.792.792H19.315l.034-.086,2-.852Zm-2.412.374-.068.17-.778-.777V12.189l.109-.111ZM17.327,12.19v1.122l-.853.852-.044-.1.8-1.976Zm-1.4,1.985.065.152H14.858l-.786-.786v-.156Zm-2.391-.095.792.792v1.192l-.11-.044-.829-1.942Zm.432,2.389.145.058-.811.811H12.19l-.111-.109ZM12.189,18.1h1.122l.851.851-.1.044L12.085,18.2Zm1.989,1.4.15-.064v1.135l-.786.787h-.156Zm-.1,2.4.792-.792h1.233l-.036.089-1.993.85Zm2.409-.38.067-.167.781.781v1.111l-.109.111ZM18.1,23.238V22.117l.894-.894.031.072L18.2,23.342Zm1.476-1.955L19.5,21.1H20.57l.786.786v.156Zm2.32.064-.792-.792v-1.28l.065.026.872,2.048Zm-.323-2.432-.192-.076.748-.748h1.109l.111.109Z" transform="translate(-8.13 -8.13)" fill="#dcf2ff"/>
    </g>
    <g id="Group_34" data-name="Group 34" transform="translate(126 772.287)" style="isolation: isolate">
      <g transform="matrix(1, 0, 0, 1, -20, -135.29)" filter="url(#Ellipse_42)">
        <circle id="Ellipse_42-2" data-name="Ellipse 42" cx="8.5" cy="8.5" r="8.5" transform="translate(20 135)" fill="#55c642"/>
      </g>
    </g>
    <text id="size" transform="translate(158 727)" fill="#fff" font-size="10" font-family="HelveticaNeue, Helvetica Neue"><tspan x="0" y="0">size</tspan></text>
    <text id="location" transform="translate(158 757)" fill="#fff" font-size="10" font-family="HelveticaNeue, Helvetica Neue"><tspan x="0" y="0">location</tspan></text>
    <text id="status" transform="translate(158 786)" fill="#fff" font-size="10" font-family="HelveticaNeue, Helvetica Neue"><tspan x="0" y="0">status</tspan></text>
    <text id="Fun_Fact" data-name="Fun Fact" transform="translate(134 824)" fill="#fff" font-size="12" font-family="HelveticaNeue-Bold, Helvetica Neue" font-weight="700"><tspan x="0" y="0">Fun Fact</tspan></text>
  </g>
</svg>
