<svg xmlns="http://www.w3.org/2000/svg" width="106" height="210" viewBox="0 0 106 210">
  <g id="Group_19" data-name="Group 19" transform="translate(-38 -419)">
    <g id="Rectangle_40" data-name="Rectangle 40" transform="translate(38 419)" fill="#0d1e4b" stroke="#707070" stroke-width="1">
      <rect width="106" height="210" stroke="none"/>
      <rect x="0.5" y="0.5" width="105" height="209" fill="none"/>
    </g>
    <text id="Small" transform="translate(91 499)" fill="#fff" font-size="12" font-family="Sniglet-Regular, Sniglet"><tspan x="-14.184" y="0">small</tspan></text>
    <text id="medium" transform="translate(91 550)" fill="#fff" font-size="12" font-family="Sniglet-Regular, Sniglet"><tspan x="-21.804" y="0">medium</tspan></text>
    <text id="large" transform="translate(92 613)" fill="#fff" font-size="12" font-family="Sniglet-Regular, Sniglet"><tspan x="-13.512" y="0">large</tspan></text>
    <g id="Shark_Silhouette" data-name="Shark Silhouette" transform="translate(78.532 469.321)">
      <path id="Shark_Silhouette-2" data-name="Shark Silhouette" d="M70.439,127.324c-3.862,1.873-3.732,3.277-4.774,2.3-3.381-3.773-6.869-5.313-10.115-5.564a7.144,7.144,0,0,1-.647-3.968A4.647,4.647,0,0,0,51,124.5h0c-9.015.184-9.85,5.743-9.85,7.134,0,4.226,14.057,9.106,24.515,1.744,1.042-.979.781.572,4.21,2.751-1.085-2.179-1.421-2.709-1.692-4.213A12.148,12.148,0,0,1,70.439,127.324Z" transform="translate(-41.15 -120.09)" fill="#00d2ae"/>
    </g>
    <g id="Shark_Silhouette-3" data-name="Shark Silhouette" transform="translate(66.563 505.5)">
      <path id="Shark_Silhouette-4" data-name="Shark Silhouette" d="M94.105,133.428c-6.983,3.452-6.748,6.041-8.631,4.237-6.113-6.956-12.419-9.8-18.289-10.259a13.4,13.4,0,0,1-1.17-7.316c-6.983,1.333-7.057,8.138-7.057,8.138h0c-16.3.34-17.809,10.587-17.809,13.152,0,7.791,25.415,16.788,44.324,3.216,1.883-1.8,1.413,1.055,7.611,5.072-1.962-4.017-2.57-4.994-3.06-7.768A22.588,22.588,0,0,1,94.105,133.428Z" transform="translate(-41.15 -120.09)" fill="#00d2ae"/>
    </g>
    <g id="Shark_Silhouette-5" data-name="Shark Silhouette" transform="translate(56.498 556.369)">
      <path id="Shark_Silhouette-6" data-name="Shark Silhouette" d="M114.235,138.61c-9.637,4.794-9.312,8.389-11.912,5.883-8.437-9.658-17.14-13.6-25.241-14.245-.854-1.933-2.325-6.045-1.615-10.158-9.637,1.85-9.739,11.3-9.739,11.3h0c-22.494.471-24.578,14.7-24.578,18.262,0,10.818,35.076,23.31,61.174,4.465,2.6-2.505,1.95,1.465,10.5,7.043-2.708-5.578-3.547-6.934-4.223-10.786A31.449,31.449,0,0,1,114.235,138.61Z" transform="translate(-41.15 -120.09)" fill="#00d2ae"/>
    </g>
    <text id="_1" data-name="1" transform="translate(59 471)" fill="#fff" font-size="52" font-family="Sniglet-Regular, Sniglet"><tspan x="-9.074" y="0">1</tspan></text>
  </g>
</svg>
