<svg xmlns="http://www.w3.org/2000/svg" width="106" height="210" viewBox="0 0 106 210">
  <g id="Group_21" data-name="Group 21" transform="translate(-172 -419)">
    <g id="Rectangle_42" data-name="Rectangle 42" transform="translate(172 419)" fill="#0d1e4b" stroke="#707070" stroke-width="1">
      <rect width="106" height="210" stroke="none"/>
      <rect x="0.5" y="0.5" width="105" height="209" fill="none"/>
    </g>
    <text id="tropical" transform="translate(224 514)" fill="#fff" font-size="11" font-family="Sniglet-Regular, Sniglet"><tspan x="-18.876" y="0">tropical</tspan></text>
    <text id="temperate" transform="translate(223 563)" fill="#fff" font-size="11" font-family="Sniglet-Regular, Sniglet"><tspan x="-26.405" y="0">temperate</tspan></text>
    <text id="polar" transform="translate(225 611)" fill="#fff" font-size="12" font-family="Sniglet-Regular, Sniglet"><tspan x="-14.022" y="0">polar</tspan></text>
    <g id="Sun" transform="translate(206.81 467.461)">
      <path id="Path_21" data-name="Path 21" d="M21.384,12l2.83,7.619,6.262-5.183L29.117,22.45l8.014-1.359-5.183,6.262,7.619,2.83-7.619,2.831,5.183,6.261-8.014-1.358,1.359,8.014-6.262-5.184-2.83,7.619-2.831-7.619-6.261,5.184,1.358-8.014L5.636,39.275l5.184-6.261L3.2,30.184l7.619-2.83L5.636,21.092,13.65,22.45l-1.358-8.014,6.261,5.183Z" transform="translate(-3.2 -12)" fill="#ea4800"/>
      <path id="Path_22" data-name="Path 22" d="M8.987,0A8.987,8.987,0,1,1,0,8.987,8.987,8.987,0,0,1,8.987,0Z" transform="translate(9.221 9.172)" fill="#ffc91d"/>
    </g>
    <g id="Rain" transform="translate(213.88 520.492)">
      <path id="Path_10" data-name="Path 10" d="M124.729,66.4a10.894,10.894,0,0,1-21.789,0c0-6,5.9-16.884,10.894-20.5C118.589,49.605,124.729,60.408,124.729,66.4Z" transform="translate(-102.94 -45.9)" fill="#61bbff"/>
      <path id="Path_11" data-name="Path 11" d="M143.107,338.063c-1.052,1.051-4.669.074-6.921-2.18s-2.8-5.916-1.751-6.965,1.937,2.435,4.19,4.689S144.158,337.011,143.107,338.063Z" transform="translate(-131.479 -309.806)" fill="#fff"/>
    </g>
    <g id="Snowflake" transform="translate(209.801 569.443)">
      <path id="Snowflake-2" data-name="Snowflake" d="M37.843,22.134H36.47l-.336.582H34.563l-.528-.212,1.375-1.347a.6.6,0,0,0-.846-.864L32.81,22.009,30.4,21.041a.771.771,0,0,0-.294-1.479l.861-2.02,2.438-.026a.6.6,0,0,0-.013-1.209l-1.908.02.236-.554,1.08-1.08.649.174.97-.97-.355-1.324-1.324-.354-.969.97.174.65-1.111,1.11-.523.224.02-1.925a.605.605,0,0,0-1.21-.013L29.1,15.692l-2.33.993a.771.771,0,0,0-1.27-.809l-.026.028-.833-2.071,1.706-1.742a.605.605,0,1,0-.865-.846l-1.335,1.363-.225-.559V10.522l.582-.336V8.813L23.319,8.13l-1.185.683v1.373l.582.336v1.571l-.212.528-1.349-1.375a.6.6,0,1,0-.864.846l1.717,1.754-.922,2.294a.772.772,0,0,0-1.445.377c0,.021,0,.043,0,.063l-2.1-.9-.026-2.438a.6.6,0,0,0-1.209.013l.02,1.908-.554-.236-1.074-1.078.174-.649-.97-.97-1.324.355-.354,1.324.969.969.65-.174,1.11,1.111.224.523-1.925-.02a.605.605,0,0,0-.013,1.21l2.456.026.962,2.257a.772.772,0,0,0-.7,1.3l.035.031-2.158.868-1.742-1.706a.605.605,0,1,0-.846.865l1.363,1.335-.559.225H10.522l-.336-.582H8.813L8.13,23.337l.683,1.185h1.373l.336-.582h1.571l.528.212L11.245,25.5a.6.6,0,1,0,.846.864l1.754-1.717,2.3.927a.77.77,0,0,0,.447,1.4l-.913,2.141-2.438.026a.6.6,0,1,0,.013,1.209l1.908-.02-.236.554-1.08,1.079-.649-.174-.97.97.355,1.324,1.324.354.969-.969-.174-.65,1.111-1.11.523-.224-.02,1.925a.605.605,0,0,0,1.21.013l.026-2.456,2.337-1a.771.771,0,0,0,1.265.724l.856,2.13-1.706,1.742a.605.605,0,1,0,.865.847l1.335-1.363.225.559v1.528l-.582.336v1.373l1.187.686,1.185-.686V36.47l-.582-.336V34.563l.212-.528L25.5,35.411a.6.6,0,0,0,.864-.846L24.648,32.81l.968-2.407a.771.771,0,0,0,1.434-.314l2.064.88.026,2.438a.6.6,0,1,0,1.209-.013l-.02-1.908.554.236,1.08,1.08-.174.649.97.97,1.324-.355.354-1.324-.969-.969-.651.177-1.11-1.111-.224-.523,1.925.02a.605.605,0,0,0,.013-1.21L30.965,29.1l-1.026-2.409a.77.77,0,0,0,.841-1.227l2.043-.821,1.742,1.706a.605.605,0,1,0,.846-.865l-1.363-1.336.559-.225h1.528l.336.582h1.373l.686-1.187Zm-7.53.582-1.425-1.424L29,21.244l3.255,1.309-.164.161Zm-4.587-.943L27.49,20.01v1.005Zm-1.161-.549.821-2.058h1.237Zm-.64-.571V18.039l.746.746Zm-1.979.451-1.937-1.938h1.1ZM21.874,18.9l.839-.839v2.792ZM21.1,21.97,19.166,21.2V20.034Zm-.266.762h-2.8l.8-.8Zm0,1.209-1.944.835-.836-.835Zm.28.757-1.948,1.948v-1.11Zm.964.747-.817,2.044H20.034Zm.654.536v2.636l-.754-.754Zm1.208-.391.9,2.1-.9.905Zm.931.126,1.774,1.775H25.635Zm.452-1.257,2.166.863v1.3Zm.842-.533h2.451l-.7.7Zm-.588-1.209,2.114-.909.909.909Zm3.413-2.344L28.7,20.5V18.8l1.246-1.246h.248Zm.1-3.671-1.257,1.257H25.867l.055-.137,3.17-1.352Zm-3.825.593-.107.27-1.233-1.233V14.566l.173-.177Zm-2.55-2.725v1.78L21.361,17.7l-.069-.161,1.262-3.133Zm-2.224,3.148.1.241H18.8l-1.246-1.246v-.248Zm-3.792-.15,1.257,1.257v1.891l-.175-.069-1.314-3.079Zm.684,3.788.231.092-1.286,1.286H14.569l-.177-.173Zm-2.817,2.587h1.78l1.35,1.35-.164.07L14.4,24.1Zm3.154,2.214.238-.1v1.8L16.711,29.1h-.248Zm-.153,3.8L18.823,28.7h1.956l-.057.141-3.16,1.347Zm3.82-.6.106-.265,1.239,1.238v1.763l-.173.177Zm2.554,2.736V30.31l1.418-1.418.05.114L24.1,32.254Zm2.34-3.1-.126-.289h1.7L29.1,29.945v.248Zm3.678.1L28.7,27.833V25.8l.1.041,1.382,3.248Zm-.511-3.857-.3-.121,1.187-1.187H32.09l.177.173Z" transform="translate(-8.13 -8.13)" fill="#dcf2ff"/>
    </g>
    <text id="_2" data-name="2" transform="translate(195 469)" fill="#fff" font-size="52" font-family="Sniglet-Regular, Sniglet"><tspan x="-14.794" y="0">2</tspan></text>
  </g>
</svg>
